<svg width="100" height="40" viewBox="0 0 100 40" fill="none" xmlns="http://www.w3.org/2000/svg">
<path d="M58.082 15.6445V15.2227H61.4746V13.8691H52.9492V15.2227H56.4121V15.6621C56.4033 17.8506 54.918 19.8809 52.457 20.6895L53.3184 22.0254C55.208 21.3662 56.5879 20.0039 57.2734 18.2812C57.9678 19.7754 59.2773 20.9619 61.0703 21.5332L61.8613 20.2324C59.4707 19.4766 58.0732 17.6484 58.082 15.6445ZM54.584 25.5059C54.584 27.3779 56.5967 28.4678 59.875 28.459C63.1182 28.4678 65.0957 27.3779 65.0957 25.5059C65.0957 23.6602 63.1182 22.5791 59.875 22.5879C56.5967 22.5791 54.584 23.6602 54.584 25.5059ZM56.2539 25.5059C56.2451 24.4775 57.5986 23.8975 59.875 23.9062C62.1338 23.8975 63.4697 24.4775 63.4609 25.5059C63.4697 26.5605 62.1338 27.1494 59.875 27.1406C57.5986 27.1494 56.2451 26.5605 56.2539 25.5059ZM63.2852 22.2012H64.9551V18.0176H67.2402V16.6465H64.9551V12.7441H63.2852V22.2012ZM72.0651 14.0098C70.0084 14.001 68.6725 16.1367 68.6725 19.5469C68.6725 22.9658 70.0084 25.1104 72.0651 25.1016C74.1393 25.1104 75.484 22.9658 75.4928 19.5469C75.484 16.1367 74.1393 14.001 72.0651 14.0098ZM70.2194 19.5469C70.2194 17.0332 70.9313 15.5654 72.0651 15.5742C73.2252 15.5654 73.9459 17.0332 73.9459 19.5469C73.9459 22.0518 73.2252 23.5283 72.0651 23.5195C70.9313 23.5283 70.2194 22.0518 70.2194 19.5469ZM76.9166 27.7207H78.4987V20.2852H80.4498V28.4941H82.0495V12.7441H80.4498V18.9141H78.4987V13.043H76.9166V27.7207ZM97.4739 12.7617H95.804V24.2051H97.4739V12.7617ZM84.7298 17.7188C84.7386 20.0303 86.5491 21.6387 88.9309 21.6387C91.304 21.6387 93.1145 20.0303 93.1145 17.7188C93.1145 15.4424 91.304 13.8252 88.9309 13.8164C86.5491 13.8252 84.7386 15.4424 84.7298 17.7188ZM86.3645 17.7188C86.3557 16.2686 87.4632 15.2754 88.9309 15.2754C90.3723 15.2754 91.4798 16.2686 91.4798 17.7188C91.4798 19.2041 90.3723 20.1797 88.9309 20.1797C87.4632 20.1797 86.3557 19.2041 86.3645 17.7188ZM87.1731 28.1602H97.9485V26.8066H88.8606V23.0449H87.1731V28.1602Z" fill="#C5C5C5"/>
<path d="M20 9.99998C21.841 9.99998 23.3333 8.5076 23.3333 6.66665C23.3333 4.8257 21.841 3.33331 20 3.33331C18.1591 3.33331 16.6667 4.8257 16.6667 6.66665C16.6667 8.5076 18.1591 9.99998 20 9.99998Z" fill="#C5C5C5"/>
<path d="M31.6667 19.8334C31.6667 19.0167 31.0667 18.35 30.2667 18.2167C28.1833 17.8667 26.2167 16.75 24.8833 15.2834L22.7333 12.9C22.45 12.5834 22.1 12.3334 21.7167 12.15C21.7 12.15 21.7 12.1334 21.6833 12.1334H21.6667C21.05 11.7834 20.3667 11.6167 19.5833 11.7167C17.8833 11.9167 16.6667 13.45 16.6667 15.1667V25C16.6667 26.8334 18.1667 28.3334 20 28.3334H28.3333V35C28.3333 35.9167 29.0833 36.6667 30 36.6667C30.9167 36.6667 31.6667 35.9167 31.6667 35V27.5C31.6667 25.6667 30.1667 24.1667 28.3333 24.1667H23.3333V18.4167C25 19.8 27.3333 20.9834 29.6667 21.45C30.7 21.6667 31.6667 20.8834 31.6667 19.8334ZM21.3833 30C20.7 31.9334 18.85 33.3334 16.6667 33.3334C13.9 33.3334 11.6667 31.1 11.6667 28.3334C11.6667 26.15 13.0667 24.3167 15 23.6167V20.1667C11.2 20.9334 8.33334 24.3 8.33334 28.3334C8.33334 32.9334 12.0667 36.6667 16.6667 36.6667C20.7 36.6667 24.0667 33.8 24.8333 30H21.3833Z" fill="#C5C5C5"/>
</svg>
