<svg width="100" height="40" viewBox="0 0 100 40" fill="none" xmlns="http://www.w3.org/2000/svg">
<path d="M56.9395 13.6582C54.5664 13.6494 52.7998 15.2139 52.8086 17.4375C52.7998 19.6348 54.5664 21.208 56.9395 21.1992C58.2402 21.208 59.3564 20.7246 60.0947 19.916H64.041V22.043H65.7109V12.7441H64.041V14.959H60.1035C59.3652 14.1416 58.249 13.6494 56.9395 13.6582ZM54.4082 17.4375C54.3994 16.0225 55.4629 15.082 56.9395 15.0996C58.3721 15.082 59.4355 16.0225 59.4355 17.4375C59.4355 18.8174 58.3721 19.793 56.9395 19.7754C55.4629 19.793 54.3994 18.8174 54.4082 17.4375ZM55.1113 25.4355C55.1025 27.3516 57.1416 28.4678 60.4375 28.459C63.7158 28.4678 65.7549 27.3516 65.7637 25.4355C65.7549 23.5107 63.7158 22.3857 60.4375 22.3945C57.1416 22.3857 55.1025 23.5107 55.1113 25.4355ZM56.7461 25.4355C56.7373 24.3105 58.126 23.6865 60.4375 23.6777C62.749 23.6865 64.1289 24.3105 64.1289 25.4355C64.1289 26.5166 62.749 27.1494 60.4375 27.1406C58.126 27.1494 56.7373 26.5166 56.7461 25.4355ZM60.8682 16.2949H64.041V18.5449H60.8682C60.9736 18.2021 61.0352 17.8242 61.0352 17.4375C61.0352 17.0332 60.9736 16.6465 60.8682 16.2949ZM82.8932 21.6387H68.4791V23.0098H72.0651V28.4941H73.7877V23.0098H77.5495V28.4941H79.237V23.0098H82.8932V21.6387ZM70.0436 16.8223C70.0524 18.9229 72.32 20.25 75.651 20.2324C78.9821 20.25 81.2672 18.9229 81.2584 16.8223C81.2672 14.6953 78.9821 13.3418 75.651 13.3418C72.32 13.3418 70.0524 14.6953 70.0436 16.8223ZM71.7662 16.8223C71.7575 15.4951 73.3131 14.6865 75.651 14.6777C77.9977 14.6865 79.5446 15.4951 79.5534 16.8223C79.5446 18.1143 77.9977 18.9141 75.651 18.9141C73.3131 18.9141 71.7575 18.1143 71.7662 16.8223ZM88.6321 13.9219C86.2766 13.9307 84.5979 16.0752 84.6067 19.4414C84.5979 22.8428 86.2766 24.9873 88.6321 24.9785C90.9876 24.9873 92.6663 22.8428 92.6751 19.4414C92.6663 16.0752 90.9876 13.9307 88.6321 13.9219ZM86.2063 19.4414C86.1975 16.9717 87.1995 15.4248 88.6321 15.416C90.0911 15.4248 91.0755 16.9717 91.0755 19.4414C91.0755 21.9463 90.0911 23.4844 88.6321 23.4844C87.1995 23.4844 86.1975 21.9463 86.2063 19.4414ZM95.013 28.4941H96.6829V20.3203H99.2141V18.9141H96.6829V12.7441H95.013V28.4941Z" fill="#C5C5C5"/>
<path d="M24.1667 19.5833C25.3173 19.5833 26.25 18.6506 26.25 17.5C26.25 16.3494 25.3173 15.4166 24.1667 15.4166C23.0161 15.4166 22.0833 16.3494 22.0833 17.5C22.0833 18.6506 23.0161 19.5833 24.1667 19.5833Z" fill="#C5C5C5"/>
<path d="M15.8333 19.5833C16.9839 19.5833 17.9167 18.6506 17.9167 17.5C17.9167 16.3494 16.9839 15.4166 15.8333 15.4166C14.6827 15.4166 13.75 16.3494 13.75 17.5C13.75 18.6506 14.6827 19.5833 15.8333 19.5833Z" fill="#C5C5C5"/>
<path d="M26.8333 23.3333H13.1667C12.85 23.3333 12.6333 23.6667 12.7833 23.95C14.1667 26.5667 16.8833 28.3333 20 28.3333C23.1167 28.3333 25.8333 26.5667 27.2167 23.95C27.35 23.6667 27.1333 23.3333 26.8333 23.3333ZM38.2333 18.9C37.8167 16.3833 35.9667 14.3333 33.55 13.6167C32.6667 11.75 31.4167 10.1167 29.9 8.76667C27.2667 6.41667 23.8 5 20 5C16.2 5 12.7333 6.41667 10.1 8.76667C8.56667 10.1167 7.31667 11.7667 6.45 13.6167C4.03333 14.3333 2.18333 16.3667 1.76667 18.9C1.7 19.25 1.66667 19.6167 1.66667 20C1.66667 20.3833 1.7 20.75 1.76667 21.1C2.18333 23.6167 4.03333 25.6667 6.45 26.3833C7.31667 28.2333 8.56667 29.8667 10.0667 31.2C12.7 33.5667 16.1833 35 20 35C23.8167 35 27.3 33.5667 29.95 31.2C31.45 29.8667 32.7 28.2167 33.5667 26.3833C35.9667 25.6667 37.8167 23.6333 38.2333 21.1C38.3 20.75 38.3333 20.3833 38.3333 20C38.3333 19.6167 38.3 19.25 38.2333 18.9ZM31.6667 23.3333C31.5 23.3333 31.35 23.3 31.1833 23.2833C30.85 24.4 30.3667 25.4333 29.75 26.3833C27.6667 29.5667 24.0833 31.6667 20 31.6667C15.9167 31.6667 12.3333 29.5667 10.25 26.3833C9.63333 25.4333 9.15 24.4 8.81667 23.2833C8.65 23.3 8.5 23.3333 8.33333 23.3333C6.5 23.3333 5 21.8333 5 20C5 18.1667 6.5 16.6667 8.33333 16.6667C8.5 16.6667 8.65 16.7 8.81667 16.7167C9.15 15.6 9.63333 14.5667 10.25 13.6167C12.3333 10.4333 15.9167 8.33333 20 8.33333C24.0833 8.33333 27.6667 10.4333 29.75 13.6167C30.3667 14.5667 30.85 15.6 31.1833 16.7167C31.35 16.7 31.5 16.6667 31.6667 16.6667C33.5 16.6667 35 18.1667 35 20C35 21.8333 33.5 23.3333 31.6667 23.3333Z" fill="#C5C5C5"/>
</svg>
