<svg width="100" height="40" viewBox="0 0 100 40" fill="none" xmlns="http://www.w3.org/2000/svg">
<path d="M65.3242 14.2559H54.0918V15.6094H63.6543V15.8027C63.6455 17.6924 63.6455 19.9248 63.0391 22.9746L64.7266 23.1504C65.3154 19.9248 65.3154 17.7451 65.3242 15.8027V14.2559ZM52.5801 26.3672H66.9414V24.9785H59.6992V19.4238H58.0469V24.9785H52.5801V26.3672ZM76.0026 13.623H69.1295V14.9766H74.3502V16.8926H69.1471V21.6738H70.2897C73.4274 21.6914 75.0446 21.6211 76.9694 21.2871L76.8112 19.9336C75.0358 20.25 73.5416 20.3115 70.7995 20.3203V18.1758H76.0026V13.623ZM71.028 25.6465C71.0192 27.5098 73.0407 28.5732 76.3717 28.5645C79.6764 28.5732 81.6891 27.5098 81.6979 25.6465C81.6891 23.792 79.6764 22.7021 76.3717 22.7109C73.0407 22.7021 71.0192 23.792 71.028 25.6465ZM72.7155 25.6465C72.6979 24.583 74.0426 24.0029 76.3717 24.0117C78.6657 24.0029 80.0455 24.583 80.0455 25.6465C80.0455 26.7012 78.6657 27.2725 76.3717 27.2637C74.0426 27.2725 72.6979 26.7012 72.7155 25.6465ZM77.0221 19.6875H79.9577V22.4297H81.6276V12.7617H79.9577V15.0996H77.0221V16.4707H79.9577V18.3164H77.0221V19.6875ZM89.8977 17.3848V15.7148H93.3255V14.3262H84.6946V15.7148H88.2454V17.3848C88.2366 20.0479 86.5052 23.0186 84.1145 24.1699L85.0989 25.4883C86.8919 24.5918 88.3684 22.6494 89.0891 20.4082C89.8011 22.4648 91.2073 24.2402 92.9739 25.084L93.9231 23.7832C91.5325 22.6494 89.8889 19.8721 89.8977 17.3848ZM95.013 28.4941H96.6829V20.3906H99.2141V18.9844H96.6829V12.7441H95.013V28.4941Z" fill="#C5C5C5"/>
<path d="M19.1667 5.83333C19.1667 4 20.6667 2.5 22.5 2.5C24.3333 2.5 25.8333 4 25.8333 5.83333C25.8333 7.66667 24.3333 9.16667 22.5 9.16667C20.6667 9.16667 19.1667 7.66667 19.1667 5.83333ZM30.8833 18.3333C28.2667 18.35 25.9833 16.8333 24.8833 14.65L23.5667 11.8667C23.2833 11.2833 22.8333 10.7833 22.2333 10.45C21.2 9.85 19.9833 9.88333 19 10.4V10.3833L11.6833 14.55C10.65 15.1333 10 16.2333 10 17.4333V21.6667C10 22.5833 10.75 23.3333 11.6667 23.3333C12.5833 23.3333 13.3333 22.5833 13.3333 21.6667V17.4333L15.8333 16.0167C15.3 17.85 15 19.75 15 21.6667V30.55L11.6667 35C11.1167 35.7333 11.2667 36.7833 12 37.3333C12.7333 37.8833 13.7833 37.7333 14.3333 37L17.7333 32.4667C18.1167 31.95 18.35 31.3167 18.4 30.6667L18.7 25.7667L21.6667 30V36.6667C21.6667 37.5833 22.4167 38.3333 23.3333 38.3333C24.25 38.3333 25 37.5833 25 36.6667V28.55C25 27.8667 24.7833 27.2 24.4 26.6333L21.7333 22.8167C21.7333 22.8167 21.7333 22.8167 21.7333 22.8C21.55 20.8667 21.85 18.9333 22.5 17.1333C23.85 19.1833 25.9167 20.7 28.35 21.3333V21.3833V21.6667C28.35 22.1333 28.7167 22.5 29.1833 22.5C29.65 22.5 30 22.1333 30 21.6667V21.4V20.8333C30 20.3667 30.3667 20 30.8333 20C31.3 20 31.6667 20.3667 31.6667 20.8333V37.5C31.6667 37.9667 32.0333 38.3333 32.5 38.3333C32.9667 38.3333 33.3333 37.9667 33.3333 37.5V20.8333C33.3333 19.4667 32.2333 18.3167 30.8833 18.3333Z" fill="#C5C5C5"/>
</svg>
