<svg width="100" height="40" viewBox="0 0 100 40" fill="none" xmlns="http://www.w3.org/2000/svg">
<path d="M66.0625 12.7441H64.4805V23.5547H66.0625V12.7441ZM52.4922 20.1797L52.668 21.5508C54.7598 21.5508 58.0205 21.5244 60.543 21.0762L60.4727 19.8281C59.9629 19.8896 59.418 19.9424 58.8555 19.9863V15.416H60.1387V14.0449H52.7734V15.416H54.0039V20.1709C53.459 20.1797 52.9404 20.1797 52.4922 20.1797ZM54.5664 27.123L55.1641 28.4238C57.6426 28.0723 59.7432 26.9473 60.7188 25.3477C61.7031 26.9473 63.8125 28.0723 66.2734 28.4238L66.9062 27.123C63.918 26.7539 61.5449 25.1631 61.5449 23.291V22.8164H59.875V23.291C59.8838 25.1631 57.5283 26.7539 54.5664 27.123ZM55.5508 20.1445V15.416H57.3438V20.083C56.7461 20.1094 56.1396 20.127 55.5508 20.1445ZM59.6289 18.4043H61.5273V22.1133H63.0918V13.0781H61.5273V17.0508H59.6289V18.4043ZM76.0553 13.9922H68.6901V15.3457H69.9205V19.8633C69.3668 19.8721 68.8571 19.8633 68.4088 19.8633L68.5846 21.2695C70.6325 21.2783 73.9108 21.2168 76.4069 20.7598L76.3366 19.5293C75.862 19.5908 75.3434 19.6436 74.8073 19.6787V15.3457H76.0553V13.9922ZM71.4147 28.3008H81.9264V22.7461H71.4147V28.3008ZM71.4674 19.8369V15.3457H73.278V19.7754C72.6715 19.8018 72.0651 19.8281 71.4674 19.8369ZM73.0495 26.9473V24.0469H80.2916V26.9473H73.0495ZM77.0397 21.7969H78.6041V18.0352H80.3444V21.9551H81.9264V12.7617H80.3444V16.6641H78.6041V13.0254H77.0397V21.7969ZM97.4915 13.3594H85.7317V14.7129H90.469C90.302 16.2686 88.0432 17.5869 85.1692 17.8945L85.7669 19.2129C88.4827 18.8965 90.7239 17.7451 91.5852 16.0664C92.4466 17.7451 94.6966 18.8965 97.4212 19.2129L98.0364 17.8945C95.136 17.5869 92.8772 16.2773 92.7014 14.7129H97.4915V13.3594ZM84.4134 21.9375H98.8098V20.584H92.4114V18.2988H90.7591V20.584H84.4134V21.9375ZM86.013 24.6797H95.3294V28.4941H97.0169V23.3438H86.013V24.6797Z" fill="#C5C5C5"/>
<path d="M7.5 20C9.80119 20 11.6667 18.1345 11.6667 15.8333C11.6667 13.5321 9.80119 11.6666 7.5 11.6666C5.19881 11.6666 3.33333 13.5321 3.33333 15.8333C3.33333 18.1345 5.19881 20 7.5 20Z" fill="#C5C5C5"/>
<path d="M15 13.3333C17.3012 13.3333 19.1667 11.4679 19.1667 9.16667C19.1667 6.86548 17.3012 5 15 5C12.6988 5 10.8333 6.86548 10.8333 9.16667C10.8333 11.4679 12.6988 13.3333 15 13.3333Z" fill="#C5C5C5"/>
<path d="M25 13.3333C27.3012 13.3333 29.1667 11.4679 29.1667 9.16667C29.1667 6.86548 27.3012 5 25 5C22.6988 5 20.8333 6.86548 20.8333 9.16667C20.8333 11.4679 22.6988 13.3333 25 13.3333Z" fill="#C5C5C5"/>
<path d="M32.5 20C34.8012 20 36.6667 18.1345 36.6667 15.8333C36.6667 13.5321 34.8012 11.6666 32.5 11.6666C30.1988 11.6666 28.3333 13.5321 28.3333 15.8333C28.3333 18.1345 30.1988 20 32.5 20Z" fill="#C5C5C5"/>
<path d="M28.9 24.7667C27.45 23.0667 26.2333 21.6167 24.7667 19.9167C24 19.0167 23.0167 18.1167 21.85 17.7167C21.6667 17.65 21.4833 17.6 21.3 17.5667C20.8833 17.5 20.4333 17.5 20 17.5C19.5667 17.5 19.1167 17.5 18.6833 17.5833C18.5 17.6167 18.3167 17.6667 18.1333 17.7333C16.9667 18.1333 16 19.0333 15.2167 19.9333C13.7667 21.6333 12.55 23.0833 11.0833 24.7833C8.9 26.9667 6.21667 29.3833 6.71667 32.7667C7.2 34.4667 8.41667 36.15 10.6 36.6333C11.8167 36.8833 15.7 35.9 19.8333 35.9H20.1333C24.2667 35.9 28.15 36.8667 29.3667 36.6333C31.55 36.15 32.7667 34.45 33.25 32.7667C33.7667 29.3667 31.0833 26.95 28.9 24.7667Z" fill="#C5C5C5"/>
</svg>
