

<svg width="40" height="40" viewBox="0 0 40 40" fill="none" xmlns="http://www.w3.org/2000/svg">
<path d="M20 9.99998C21.841 9.99998 23.3333 8.5076 23.3333 6.66665C23.3333 4.8257 21.841 3.33331 20 3.33331C18.1591 3.33331 16.6667 4.8257 16.6667 6.66665C16.6667 8.5076 18.1591 9.99998 20 9.99998Z" fill="#C5C5C5"/>
<path d="M31.6667 19.8334C31.6667 19.0167 31.0667 18.35 30.2667 18.2167C28.1833 17.8667 26.2167 16.75 24.8833 15.2834L22.7333 12.9C22.45 12.5834 22.1 12.3334 21.7167 12.15C21.7 12.15 21.7 12.1334 21.6833 12.1334H21.6667C21.05 11.7834 20.3667 11.6167 19.5833 11.7167C17.8833 11.9167 16.6667 13.45 16.6667 15.1667V25C16.6667 26.8334 18.1667 28.3334 20 28.3334H28.3333V35C28.3333 35.9167 29.0833 36.6667 30 36.6667C30.9167 36.6667 31.6667 35.9167 31.6667 35V27.5C31.6667 25.6667 30.1667 24.1667 28.3333 24.1667H23.3333V18.4167C25 19.8 27.3333 20.9834 29.6667 21.45C30.7 21.6667 31.6667 20.8834 31.6667 19.8334ZM21.3833 30C20.7 31.9334 18.85 33.3334 16.6667 33.3334C13.9 33.3334 11.6667 31.1 11.6667 28.3334C11.6667 26.15 13.0667 24.3167 15 23.6167V20.1667C11.2 20.9334 8.33334 24.3 8.33334 28.3334C8.33334 32.9334 12.0667 36.6667 16.6667 36.6667C20.7 36.6667 24.0667 33.8 24.8333 30H21.3833Z" fill="#C5C5C5"/>
</svg>
